<svg width="245" height="291" viewBox="0 0 245 291" fill="none" xmlns="http://www.w3.org/2000/svg">
<path d="M103.136 1.27692C89.7354 3.60751 80.413 5.64679 77.6454 6.8121C76.0431 7.54041 72.4015 9.1427 69.3426 10.4537C66.4294 11.7646 63.6618 12.7843 63.2248 12.7843C62.6421 12.7843 58.1266 15.4062 53.0284 18.6108C39.0448 27.4962 23.4589 44.6844 16.7584 58.668C13.6995 65.0772 10.4949 71.4863 9.62093 73.0886C8.89261 74.5452 7.87297 79.2065 7.43599 83.285L6.70767 90.7138L14.1365 90.8595C22.2936 91.0051 24.0415 92.0248 28.7027 100.619C35.4032 112.563 37.1512 131.062 33.6553 151.746L31.9073 161.797L38.0251 167.915C46.7649 176.655 49.8238 186.123 48.8042 201.126C48.0759 212.925 45.8909 219.48 40.2101 226.763C38.7535 228.656 37.5882 231.278 37.5882 232.444C37.5882 235.794 47.4932 243.951 57.2526 248.612C71.8189 255.458 76.4801 257.498 78.2281 257.498C79.102 257.498 80.9956 258.08 82.4523 258.809C83.7632 259.537 89.1527 261.285 94.3966 262.596C99.6405 263.907 105.904 265.509 108.235 266.237C114.935 267.985 121.636 268.277 156.303 268.277C193.884 268.277 195.487 268.131 210.49 260.848C220.977 255.75 227.969 247.738 232.339 235.648C235.107 227.782 231.757 227.637 224.473 235.211C217.482 242.349 203.207 249.632 191.408 251.962C179.609 254.293 149.894 255.021 141.009 253.273C98.4752 244.388 67.3033 220.645 58.1266 190.056C54.6307 178.111 54.1937 128.586 57.5439 116.35C60.8942 103.678 69.7796 94.3554 81.287 91.0051C91.0464 88.0919 160.673 83.8677 219.667 82.411C234.524 82.1197 234.961 82.1197 236.563 85.6156C238.748 89.9855 240.933 95.5207 242.099 99.3079C243.992 105.134 245.594 99.1622 244.429 90.7138C243.264 83.285 237 67.4078 234.087 65.2228C233.65 64.7858 232.776 63.0379 232.193 61.1443C231.611 59.3963 230.446 57.9397 229.717 57.9397C228.989 57.9397 228.406 57.2114 228.406 56.3374C228.406 54.5895 220.832 44.8301 213.986 37.9839C203.061 26.7679 173.783 8.4144 166.791 8.4144C165.626 8.4144 164.023 7.68607 163.586 6.95776C163.004 6.0838 161.838 5.50113 160.964 5.64679C159.945 5.79245 158.197 5.64679 157.032 5.06415C154.847 4.19019 151.059 3.46185 139.552 1.13126C131.686 -0.471039 112.167 -0.325378 103.136 1.27692Z" fill="black"/>
<path d="M205.828 89.5487C195.632 89.84 188.057 90.714 187.474 91.5879C187.037 92.4619 187.037 95.5208 187.766 98.5797C189.368 105.572 189.368 157.573 187.62 165.002C184.852 177.383 183.105 184.084 181.939 186.851C181.211 188.454 179.463 192.386 178.152 195.591C172.034 210.303 163.877 223.704 153.681 236.085C150.476 239.873 148.145 243.368 148.728 243.805C150.622 245.699 167.519 246.136 179.463 244.534C194.758 242.494 208.887 236.522 215.296 229.53C220.103 224.432 226.949 213.071 226.949 210.303C226.949 209.429 227.823 206.953 228.843 204.913C230.008 202.874 231.319 198.359 231.902 194.717C232.339 191.221 233.358 185.395 234.232 181.753C237.582 165.585 238.602 136.306 236.563 116.933C235.397 106.446 233.795 95.9578 233.212 93.6272C231.61 88.6747 232.921 88.8203 205.828 89.5487Z" fill="black"/>
<path d="M0.298226 97.4143C-0.138762 98.2883 -0.138762 99.4536 0.589552 100.036C3.21148 101.784 6.99871 108.776 8.74666 115.039C12.2426 127.566 10.0576 158.01 5.39642 163.836C3.21148 166.458 3.79413 166.895 10.349 167.332C15.1558 167.769 16.1755 167.332 18.5061 163.545C23.6043 154.951 26.6632 132.373 24.3326 119.118C23.4586 114.603 19.0887 105.134 15.1558 99.7449C12.9709 96.686 11.0773 95.812 6.85305 95.812C3.79413 95.812 0.880877 96.5403 0.298226 97.4143Z" fill="black"/>
<path d="M23.0222 171.702C23.0222 172.576 24.3332 174.907 25.9355 176.946C27.5378 178.985 28.8487 181.899 28.8487 183.355C28.8487 184.812 29.577 186.414 30.3053 186.851C32.7816 188.454 31.9076 205.35 28.9944 213.362C27.5378 217.586 26.6638 221.228 27.1008 221.665C27.5378 222.102 29.7227 222.539 32.0533 222.539C35.2579 222.539 36.5688 221.665 37.7341 218.46C38.6081 216.275 39.9191 213.362 40.6474 212.051C41.3757 210.594 41.9584 204.039 41.9584 197.339C41.9584 185.103 40.0647 178.694 34.9666 172.576C32.4903 169.809 23.0222 169.08 23.0222 171.702Z" fill="black"/>
<path d="M43.7068 255.895C42.6872 258.954 41.9589 262.596 41.9589 263.761C41.9589 266.966 49.9703 275.851 55.2142 278.473C69.1978 285.465 105.905 290.709 140.864 291C154.702 291 158.635 290.563 163.587 288.087C169.559 285.173 174.366 278.473 172.036 276.288C171.453 275.705 161.402 274.831 149.749 274.54C130.959 273.812 110.712 272.064 100.224 270.025C91.1928 268.277 87.6969 267.403 85.6577 266.529C84.4924 266.092 82.8901 265.509 82.0161 265.509C79.9768 265.072 75.1699 263.324 72.2567 261.722C70.8001 260.994 68.7608 260.411 67.7412 260.411C66.7215 260.411 61.4777 258.08 56.0881 255.313C50.6986 252.545 46.0374 250.214 45.8918 250.214C45.6004 250.214 44.5808 252.691 43.7068 255.895Z" fill="black"/>
</svg>
